<mxfile host="app.diagrams.net" modified="2024-02-18T09:19:00.560Z" agent="Mozilla/5.0 (Windows NT 10.0; Win64; x64) AppleWebKit/537.36 (KHTML, like Gecko) Chrome/119.0.6045.160 Safari/537.36" version="23.1.1" etag="qCyEE4AFdgMkl_FZNuZY" type="github">
  <diagram name="第 1 页" id="PF8l7V1Bwsa_fMLXNIn3">
    <mxGraphModel>
      <root>
        <mxCell id="0" />
        <mxCell id="1" parent="0" />
      </root>
    </mxGraphModel>
  </diagram>
</mxfile>
